<?xml version="1.0" encoding="utf-8"?>
<!-- Generator: Adobe Illustrator 26.0.2, SVG Export Plug-In . SVG Version: 6.00 Build 0)  -->
<svg version="1.1" id="Layer_1" xmlns="http://www.w3.org/2000/svg" xmlns:xlink="http://www.w3.org/1999/xlink" x="0px" y="0px"
	 viewBox="0 0 1920 1080" style="enable-background:new 0 0 1920 1080;" xml:space="preserve">
<style type="text/css">
	.st0{fill:#FFFFFF;}
</style>
<path class="st0" d="M-1301.78-451.94c-38.12-66.56-105.43-115.25-200.06-144.72l-0.61-0.2c-0.89-0.31-90.96-31.52-217.61-32.02
	c-126.69,0.5-216.71,31.71-217.6,32.02l-0.62,0.21c-94.63,29.47-161.94,78.16-200.06,144.72c-57.93,101.14-35.89,221.11-7.2,303.94
	l-0.07,0.17c1.98,5.22,16.81,43.65,23.36,58.04l0.16,0.23c40.8,92.98,78.64,140.88,79,141.34l0.51,0.67
	c102.6,141.66,210.61,213.49,321.02,213.49l1.32-0.02l1.69,0.02c110.41,0,218.41-71.83,321.01-213.49l0.5-0.65
	c0.38-0.48,38.22-48.37,79.01-141.35l0.16-0.23c6.56-14.41,21.41-52.9,23.36-58.04l-0.07-0.17
	C-1265.89-230.83-1243.84-350.8-1301.78-451.94z M-2086.6-100.02c-55.71-120.96-160.67-448.31,307.04-494.7
	c-10.04,14.75-20.88,33.08-30.9,54.94c-141.57,39.61-245.7,169.76-245.7,323.8c0,29.28,3.77,57.7,10.84,84.79
	c-14.36,21.34-24.63,41.19-31.89,57.72C-2080.66-82.16-2083.8-91.02-2086.6-100.02z M-1840.78-289.77
	c-21.76,7.78-44.44,18.06-67.5,31.57c-49.28,28.88-85.76,62.28-112.69,94.56c-2.94-17-4.48-34.49-4.48-52.33
	c0-131.72,83.38-243.97,200.24-286.84c-13.12,38.41-22.48,84.74-22.48,138.98C-1847.69-337.14-1845.05-312.39-1840.78-289.77z
	 M-2012.51,34.26c-5.23-6.14-10.24-12.47-15.08-18.94c14.2,1.5,28.41,2.26,42.52,2.26c7.75,0,15.32-0.3,22.81-0.72
	c61.21,63.67,147.18,103.35,242.26,103.35c95.08,0,181.06-39.69,242.27-103.35c7.48,0.43,15.05,0.73,22.8,0.73c0.01,0,0.02,0,0.03,0
	c14.11,0,28.31-0.76,42.51-2.26c0.14-0.02,0.29-0.04,0.43-0.05c1.17-0.12,2.34-0.28,3.5-0.41
	C-1441.95,71-1698.91,468.95-2012.51,34.26z M-1922.48,12.69c104.35-16.35,176.93-69.36,202.5-90.62
	c25.7,21.35,98.25,74.28,202.49,90.61c-53.9,47.77-124.8,76.79-202.49,76.79C-1797.68,89.47-1868.58,60.46-1922.48,12.69z
	 M-1700.25-101.35l17.14-17.86c131.07,102.13,255.01,68.01,255.01,68.01s-14.45-90.27-129.05-157.44
	c-48.96-28.7-92.45-41.3-126.24-46.36c0,0-1.28-0.11-3.55-0.52c-10.33-1.41-19.68-2.12-27.96-2.37
	c-15.34-0.21-35.76,1.09-60.04,6.27c16.67,50.29,39.51,72.56,39.51,72.56l-17.71,20.11c0,0-26.19-30.5-45.02-86.79
	c-25.37,7.44-53.93,19.09-84.65,37.1c-114.6,67.17-129.06,157.44-129.06,157.44s138.93,35.6,263.65-75.7
	c41-36.59,62.22-76.84,70.84-96.36c6.96,1.45,15.02,3.33,23.63,5.73c-27.45,61.13-77.33,108.49-77.33,108.49
	s-134.43,129-331.82,87.75c0,0,26.03-125.92,170.18-210.41c26.7-15.65,54.4-29.05,87.55-37.75c-6.96-26.98-11.78-58.54-11.78-94.4
	c0-167.08,95.48-253.22,95.48-253.22c135.4,149.44,94,319.64,94,319.64l-24.07-5.75c24.73-150.51-69.93-254.73-69.93-254.73
	s-70.57,58.12-70.57,190.95c0,36.5,4.29,67.1,10.49,92.33c19.4-3.47,40.68-5.42,64.58-5.42c66,0,122.5,20.67,169.73,48.35
	c144.15,84.49,170.18,210.41,170.18,210.41C-1574.47,19.96-1700.25-101.35-1700.25-101.35z M-1617.45-503.77
	c118.25,42.14,202.91,155.07,202.91,287.79c0,17.84-1.55,35.33-4.48,52.33c-26.93-32.28-63.42-65.68-112.7-94.56
	c-22.46-13.16-44.57-23.25-65.8-30.96C-1592.36-318.19-1581.66-405.87-1617.45-503.77z M-1354.71-95.95
	c-2.45,7.58-5.21,15.01-8.12,22.37c-7.25-16.51-17.51-36.31-31.83-57.6c7.07-27.1,10.84-55.51,10.84-84.79
	c0-155.34-105.91-286.39-249.32-324.78c-8.84-18.3-19.45-36.74-32.18-55.02C-1565.75-591.39-1160.62-546.12-1354.71-95.95z"/>
<path class="st0" d="M-1411.95,15.27c-0.14,0.02-0.29,0.04-0.43,0.05c-0.27,0.35-0.51,0.72-0.78,1.08
	C-1412.76,16.02-1412.36,15.64-1411.95,15.27z"/>
</svg>
