<svg version="1.1" id="Layer_1" xmlns="http://www.w3.org/2000/svg" xmlns:xlink="http://www.w3.org/1999/xlink" x="0px"
	y="0px" style="enable-background:new 0 0 500 500;" xml:space="preserve" viewBox="198.45 190 103.07 120">
	<style type="text/css">
		.st0 {
			fill: #A3A3A3;
		}
	</style>
	<g>
		<path class="st0"
			d="M213.03,190.72c-0.95-0.95-2.51-0.95-3.46,0c-10.62,10.7-11.09,22.17-11.09,22.17v71.47h12.82h12.82v-71.47 		C224.13,212.89,223.66,201.42,213.03,190.72z">
		</path>
		<path class="st0"
			d="M251.73,190.72c-0.95-0.95-2.51-0.95-3.46,0c-10.62,10.7-11.09,22.17-11.09,22.17v71.47H250h12.82v-71.47 		C262.82,212.89,262.35,201.42,251.73,190.72z">
		</path>
		<path class="st0"
			d="M290.42,190.72c-0.95-0.95-2.51-0.95-3.46,0c-10.62,10.7-11.09,22.17-11.09,22.17v71.47h12.82h12.82v-71.47 		C301.51,212.89,301.04,201.42,290.42,190.72z">
		</path>
		<rect x="198.49" y="294.2" class="st0" width="25.64" height="15.8"></rect>
		<rect x="237.18" y="294.2" class="st0" width="25.64" height="15.8"></rect>
		<rect x="275.87" y="294.2" class="st0" width="25.64" height="15.8"></rect>
	</g>
</svg>