<svg xmlns="http://www.w3.org/2000/svg" viewBox="186.85 190 126.28 119.02">
	<path class="st0"
		d="M279.1,220.3c0.06-0.75,0.11-1.49,0.11-2.25c0-16.54-14.32-29.74-31.24-27.87 	c-12.86,1.42-23.26,11.82-24.68,24.68c-1.87,16.92,11.33,31.24,27.87,31.24c9.32,0,17.55-4.56,22.65-11.55 	c2.5,1.76,5.37,4.84,8.43,10.07c0.54,0.93,1.55,1.48,2.63,1.48h8.68c1.64,0,2.82-1.57,2.36-3.14 	C294.34,237.59,289.94,226.6,279.1,220.3z">
	</path>
	<path class="st0"
		d="M269.77,304.04c0.63,0.41,1.26,0.81,1.93,1.18c14.54,7.89,32.97,1.61,39.4-14.16 	c4.89-11.98,0.71-26.08-9.91-33.47c-13.98-9.72-32.86-4.95-40.76,9.59c-4.45,8.19-4.37,17.6-0.66,25.42 	c-2.74,1.35-6.81,2.41-12.87,2.6c-1.07,0.03-2.04,0.66-2.56,1.6l-4.14,7.63c-0.78,1.44,0.03,3.23,1.63,3.57 	C247.31,309.19,259.07,310.57,269.77,304.04z">
	</path>
	<path class="st0"
		d="M202.17,255.5c-0.67,0.34-1.33,0.69-1.98,1.09c-14.08,8.69-17.79,27.81-7.32,41.23 	c7.96,10.2,22.27,13.59,33.96,8.04c15.38-7.29,20.64-26.05,11.95-40.13c-4.89-7.93-13.1-12.54-21.73-13.21 	c0.19-3.05,1.3-7.11,4.15-12.46c0.5-0.95,0.45-2.1-0.12-3.01l-4.56-7.39c-0.86-1.4-2.81-1.58-3.91-0.36 	C208.87,233.45,201.83,242.96,202.17,255.5z">
	</path>
</svg>