<svg version="1.1" id="Layer_1" xmlns="http://www.w3.org/2000/svg" xmlns:xlink="http://www.w3.org/1999/xlink" x="0px"
	y="0px" style="enable-background:new 0 0 500 500;" xml:space="preserve" viewBox="190 190 120.02 120">
	<style type="text/css">
		.st0 {
			fill: #A3A3A3;
		}
	</style>
	<path class="st0"
		d="M301.24,228.3H271.7v-29.54c0-4.82-3.94-8.76-8.76-8.76h-25.87c-4.82,0-8.76,3.94-8.76,8.76v29.54h-29.54 	c-4.82,0-8.76,3.94-8.76,8.76v25.87c0,4.82,3.94,8.76,8.76,8.76h29.54v29.54c0,4.82,3.94,8.76,8.76,8.76h25.87 	c4.82,0,8.76-3.94,8.76-8.76V271.7h29.54c4.82,0,8.76-3.94,8.76-8.76v-25.87C310,232.24,306.06,228.3,301.24,228.3z">
	</path>
</svg>