<svg version="1.1" id="Layer_1" xmlns="http://www.w3.org/2000/svg" xmlns:xlink="http://www.w3.org/1999/xlink" x="0px"
	y="0px" style="enable-background:new 0 0 500 500;" xml:space="preserve" viewBox="200.73 190 98.35 120.03">
	<style type="text/css">
		.st0 {
			fill: #A3A3A3;
		}
	</style>
	<path class="st0"
		d="M297.03,201.99c-1.7-2.25-4.07-3.89-6.7-4.9c-10.35-3.98-24.87-5.89-33.41-6.73c-4.67-0.46-9.38-0.46-14.06,0 	c-8.53,0.83-23.06,2.75-33.4,6.73c-2.63,1.01-5,2.65-6.7,4.9c-1.1,1.46-2.02,3.25-2.02,5.16l0,44.45c0,4.8,1.17,9.52,3.47,13.74 	c5.43,9.98,18.07,28.34,43.45,44.05c1.37,0.85,3.11,0.85,4.47,0c25.38-15.72,38.02-34.07,43.45-44.05 	c2.29-4.21,3.47-8.94,3.47-13.74v-44.45C299.06,205.24,298.14,203.45,297.03,201.99z">
	</path>
</svg>