<?xml version="1.0" standalone="no"?>
<!DOCTYPE svg PUBLIC "-//W3C//DTD SVG 20010904//EN"
 "http://www.w3.org/TR/2001/REC-SVG-20010904/DTD/svg10.dtd">
<svg version="1.0" xmlns="http://www.w3.org/2000/svg"
 width="143.000000pt" height="143.000000pt" viewBox="0 0 143.000000 143.000000"
 preserveAspectRatio="xMidYMid meet">
<metadata>
Created by potrace 1.14, written by Peter Selinger 2001-2017
</metadata>
<g transform="translate(0.000000,143.000000) scale(0.100000,-0.100000)"
fill="#000000" stroke="none">
<path d="M516 1289 c-376 -77 -489 -344 -306 -724 96 -201 251 -362 395 -410
45 -16 147 -22 192 -11 149 34 324 205 429 421 161 332 92 584 -188 689 -37
14 -80 28 -95 31 -15 2 -49 8 -74 13 -80 15 -258 11 -353 -9z m274 -109 c36
-71 50 -123 51 -196 2 -90 0 -104 -15 -104 -10 0 -14 17 -14 68 -1 37 -3 78
-6 91 -7 29 -58 139 -78 165 -14 17 -16 16 -46 -30 -18 -26 -37 -66 -43 -88
-15 -53 -20 -162 -11 -205 l7 -34 70 2 c136 4 284 -68 376 -183 44 -53 87
-141 76 -152 -8 -8 -138 -8 -192 0 -82 12 -226 90 -211 114 4 8 22 2 54 -17
26 -16 70 -37 97 -46 50 -17 177 -26 190 -13 12 12 -37 101 -78 141 -93 92
-215 137 -344 128 -28 -1 -29 -20 -3 -66 11 -20 18 -41 14 -46 -10 -16 -31 9
-50 57 -9 24 -19 44 -21 44 -3 0 -33 -13 -68 -30 -80 -38 -153 -104 -189 -169
l-27 -51 23 -9 c20 -7 94 -7 139 2 95 18 208 98 265 188 33 52 52 41 22 -13
-59 -105 -187 -190 -323 -215 -51 -9 -166 -6 -177 5 -13 13 47 123 97 174 43
46 128 106 170 122 11 4 20 6 20 5 0 -1 10 3 21 9 19 10 21 16 13 49 -8 39 -5
155 6 206 9 43 53 138 82 176 l26 34 24 -29 c13 -16 37 -54 53 -84z m226 39
c171 -64 254 -188 241 -359 -8 -102 -22 -158 -53 -218 -8 -15 -14 -34 -14 -42
0 -9 -9 -2 -20 15 -18 26 -20 40 -15 105 11 140 -33 264 -128 359 -45 46 -152
111 -181 111 -11 0 -46 54 -46 69 0 12 154 -17 216 -40z m-388 34 c-24 -50
-34 -61 -66 -72 -183 -64 -308 -274 -280 -469 6 -40 4 -60 -7 -83 -9 -16 -19
-29 -23 -29 -11 0 -51 109 -66 182 -37 177 19 318 159 398 74 42 296 99 283
73z m-53 -123 c-14 -23 -21 -100 -25 -261 0 -3 -21 -15 -47 -28 -53 -26 -163
-108 -163 -122 0 -5 -5 -9 -11 -9 -8 0 -10 25 -6 79 3 61 12 95 35 145 36 76
112 158 175 186 49 23 50 23 42 10z m387 -50 c85 -65 145 -179 152 -288 1 -31
1 -63 -1 -69 -3 -8 -25 5 -58 34 -29 26 -79 61 -111 78 l-59 32 -1 84 c-1 46
-7 104 -13 129 -6 25 -11 48 -11 52 0 12 55 -16 102 -52z m-211 -521 c37 -26
145 -75 187 -84 17 -3 32 -10 32 -13 0 -4 -26 -21 -57 -39 -135 -73 -289 -67
-416 16 l-39 25 69 22 c68 22 158 67 168 85 9 14 24 11 56 -12z m-311 -132
c40 -35 141 -85 190 -93 137 -22 259 10 370 98 32 25 100 41 114 27 9 -9 -94
-132 -148 -177 -85 -72 -148 -97 -241 -97 -70 0 -88 4 -145 32 -68 34 -150
105 -214 185 -21 26 -35 51 -32 56 10 17 71 -1 106 -31z"/>
</g>
</svg>
